<svg width="60" height="60" viewBox="0 0 60 60" fill="none" xmlns="http://www.w3.org/2000/svg">
<g clip-path="url(#clip0_6_1782)">
<path d="M47.1682 52.9809L37.1239 54.91L34.5068 45.9082L37.1239 36.9064H39.1593C39.1593 36.9064 47.1682 40.2758 47.1682 52.9809Z" fill="#77718C"/>
<path d="M22.876 36.9064L25.4931 45.9082L22.876 54.91L12.8318 52.9809C12.8318 40.2758 20.8406 36.9064 20.8406 36.9064H22.876Z" fill="#77718C"/>
<path d="M37.124 36.9064V54.91L30 56.4649L22.8761 54.91V36.9064H37.124Z" fill="#EAEAEA"/>
<path d="M25.4931 55.4812L27.6502 42.1128H32.3498L34.5069 55.4812H25.4931Z" fill="#FC5C70"/>
<path d="M27.1281 38.1136V41.9726C27.1281 43.5587 28.4138 44.8445 30 44.8445C31.5862 44.8445 32.8719 43.5588 32.8719 41.9726V38.1136H27.1281Z" fill="#FF6F7F"/>
<path d="M7.19635 22.8548C7.19635 10.2809 17.426 0.051178 30 0.051178C42.5739 0.051178 52.8037 10.2809 52.8037 22.8548H7.19635Z" fill="#77718C"/>
<path d="M15.2794 22.0655C15.2794 11.6876 22.1832 2.92345 31.6481 0.111178C31.1036 0.0720633 30.5542 0.051178 30 0.051178C17.426 0.051178 7.19635 10.2809 7.19635 22.8548H15.2945C15.2856 22.5927 15.2794 22.3299 15.2794 22.0655Z" fill="#6A647F"/>
<path d="M48.699 27.7553C51.4055 27.7553 53.5996 25.5613 53.5996 22.8548C53.5996 20.1483 51.4055 17.9542 48.699 17.9542C45.9925 17.9542 43.7985 20.1483 43.7985 22.8548C43.7985 25.5613 45.9925 27.7553 48.699 27.7553Z" fill="#FFBD86"/>
<path d="M42.6157 9.21803C41.2168 7.9235 39.2297 7.50145 37.4006 8.03771C35.2003 8.68274 32.6793 9.04902 30 9.04902C27.3206 9.04902 24.7996 8.68262 22.5993 8.03771C20.7702 7.50157 18.7832 7.9235 17.3843 9.21803C13.7175 12.6115 11.4216 17.4647 11.4216 22.8548C11.4216 33.1153 19.7394 40.2258 29.9998 40.2258C40.2603 40.2258 48.5781 33.1153 48.5781 22.8548C48.5782 17.4647 46.2824 12.6115 42.6157 9.21803Z" fill="#FED2A4"/>
<path d="M44.2455 21.2174C44.2455 24.2337 41.792 26.6885 38.7757 26.6885C35.7594 26.6885 33.306 24.2337 33.306 21.2174C33.306 18.2011 35.7594 15.7476 38.7757 15.7476C41.792 15.7477 44.2455 18.2011 44.2455 21.2174Z" fill="#FFD7B6"/>
<path d="M27.0006 21.2174C27.0006 24.4025 24.4099 26.9946 21.2249 26.9946C18.0399 26.9946 15.4478 24.4025 15.4478 21.2174C15.4478 18.0323 18.0398 15.4417 21.2249 15.4417C24.41 15.4417 27.0006 18.0323 27.0006 21.2174Z" fill="#FFD7B6"/>
<path d="M21.3595 19.7531C20.8595 19.7531 20.4541 20.1585 20.4541 20.6586V22.3189C20.4541 22.8189 20.8595 23.2243 21.3595 23.2243C21.8596 23.2243 22.265 22.8189 22.265 22.3189V20.6586C22.265 20.1585 21.8596 19.7531 21.3595 19.7531Z" fill="#423E4F"/>
<path d="M38.6405 19.7531C38.1403 19.7531 37.735 20.1585 37.735 20.6586V22.3189C37.735 22.8189 38.1403 23.2243 38.6405 23.2243C39.1406 23.2243 39.5459 22.8189 39.5459 22.3189V20.6586C39.5459 20.1585 39.1405 19.7531 38.6405 19.7531Z" fill="#423E4F"/>
<path d="M32.5826 25.1091C32.2053 24.7805 31.6335 24.8198 31.3051 25.1968C30.9756 25.5749 30.5 25.7918 30.0001 25.7918C29.5001 25.7918 29.0245 25.5749 28.6949 25.1968C28.3663 24.8198 27.7945 24.7806 27.4174 25.1091C27.0404 25.4376 27.0011 26.0094 27.3296 26.3865C28.0032 27.1593 28.9764 27.6026 29.9999 27.6026C31.0234 27.6026 31.9966 27.1595 32.6701 26.3865C32.9988 26.0096 32.9595 25.4376 32.5826 25.1091Z" fill="#423E4F"/>
<path d="M22.6769 38.9192C18.1295 34.734 15.2795 28.733 15.2795 22.0656C15.2795 16.7047 17.1221 11.7745 20.2077 7.87244C19.1678 8.02805 18.1807 8.48113 17.3843 9.21815C14.8556 11.5583 12.9793 14.5929 12.058 18.0187C11.8219 17.9769 11.5704 17.9542 11.3009 17.9542C8.59437 17.9542 6.40033 20.1483 6.40033 22.8549C6.40033 25.5614 8.59437 27.7555 11.3009 27.7555C11.5794 27.7555 11.8387 27.731 12.0816 27.6864C13.5833 32.9717 17.53 36.9745 22.6769 38.9192Z" fill="#FFBD86"/>
<path d="M38.7757 14.4087C35.3882 14.4087 32.5717 16.8956 32.0526 20.1383C31.4055 19.8739 30.7077 19.7338 30.0002 19.7338C29.2916 19.7338 28.5938 19.8739 27.9467 20.1383C27.4276 16.8956 24.6111 14.4087 21.2248 14.4087C17.4703 14.4087 14.4147 17.463 14.4147 21.2175C14.4147 24.9721 17.4703 28.0276 21.2248 28.0276C24.6546 28.0276 27.4988 25.4767 27.9648 22.1725C28.5624 21.7656 29.2723 21.5447 30.0002 21.5447C30.727 21.5447 31.4381 21.7656 32.0344 22.1725C32.5004 25.4767 35.3447 28.0276 38.7757 28.0276C42.5302 28.0276 45.5845 24.9721 45.5845 21.2175C45.5845 17.463 42.5302 14.4087 38.7757 14.4087ZM21.2248 26.2167C18.4687 26.2167 16.2256 23.9737 16.2256 21.2175C16.2256 18.4614 18.4687 16.2196 21.2248 16.2196C23.9809 16.2196 26.2228 18.4614 26.2228 21.2175C26.2228 23.9737 23.9809 26.2167 21.2248 26.2167ZM38.7757 26.2167C36.0196 26.2167 33.7777 23.9737 33.7777 21.2175C33.7777 18.4614 36.0196 16.2196 38.7757 16.2196C41.5318 16.2196 43.7737 18.4614 43.7737 21.2175C43.7737 23.9737 41.5318 26.2167 38.7757 26.2167Z" fill="#423E4F"/>
<path d="M39.1764 46.1566C36.7679 46.1566 34.8154 48.1091 34.8154 50.5176C34.8154 51.8778 35.9181 52.9805 37.2783 52.9805L39.1764 54.7252L41.0744 52.9805C42.4346 52.9805 43.5373 51.8778 43.5373 50.5176C43.5373 48.1091 41.5848 46.1566 39.1764 46.1566Z" fill="#FED2A4"/>
<path d="M20.8236 46.1566C23.232 46.1566 25.1845 48.1091 25.1845 50.5176C25.1845 51.8778 24.0818 52.9805 22.7216 52.9805L20.8236 54.7252L18.9255 52.9805C17.5653 52.9805 16.4626 51.8778 16.4626 50.5176C16.4626 48.1091 18.4151 46.1566 20.8236 46.1566Z" fill="#FED2A4"/>
<path d="M56.9401 52.9803H3.05988C1.36998 52.9803 0 54.3503 0 56.0402V57.9581C0 59.0575 0.891308 59.9488 1.99074 59.9488H58.0093C59.1087 59.9488 60 59.0575 60 57.9581V56.0402C60 54.3503 58.63 52.9803 56.9401 52.9803Z" fill="#E8A882"/>
<path d="M9.60495 52.9803H3.05988C1.36998 52.9803 0 54.3503 0 56.0402V57.9581C0 59.0575 0.891308 59.9488 1.99074 59.9488H12.7825C11.1962 57.962 10.0805 55.5832 9.60495 52.9803Z" fill="#E3986D"/>
</g>
<defs>
<clipPath id="clip0_6_1782">
<rect width="60" height="60" fill="white"/>
</clipPath>
</defs>
</svg>
