<svg width="60" height="60" viewBox="0 0 60 60" fill="none" xmlns="http://www.w3.org/2000/svg">
<g clip-path="url(#clip0_6_1724)">
<path d="M22.0812 43.0545L26.5768 52.5818L22.0812 60H11.1714C11.1714 46.0306 20.4504 43.0545 20.4504 43.0545H22.0812Z" fill="#FFA875"/>
<path d="M48.8287 60H37.92L34.7535 53.1837L37.92 43.0545H39.6394C39.6394 43.0545 48.8287 46.0306 48.8287 60Z" fill="#FFA875"/>
<path d="M22.0812 43.0545H37.92V60H22.0812V43.0545Z" fill="#81DDFD"/>
<path d="M5.10083 24.8991C5.10083 11.1697 16.2706 -7.62939e-06 30 -7.62939e-06C43.7294 -7.62939e-06 54.8991 11.1697 54.8991 24.8991H5.10083Z" fill="#827F98"/>
<path d="M9.44838 24.8991H5.10086C5.10086 27.6137 4.60154 29.7698 4.0683 31.2981C3.36255 33.3212 4.13724 35.5656 5.94991 36.7083C8.00669 38.0048 11.114 39.275 15.3949 39.275L9.44838 24.8991Z" fill="#77718C"/>
<path d="M50.5516 24.8991H54.8992C54.8992 27.6137 55.3985 29.7698 55.9317 31.2981C56.6375 33.3212 55.8628 35.5656 54.0501 36.7083C51.9933 38.0048 48.886 39.275 44.6051 39.275L50.5516 24.8991Z" fill="#827F98"/>
<path d="M14.1876 23.8857C14.1876 14.1694 18.9498 5.56647 26.2663 0.279953C14.3017 2.08683 5.10083 12.4385 5.10083 24.899H14.2071C14.1956 24.5624 14.1876 24.225 14.1876 23.8857Z" fill="#77718C"/>
<path d="M50.8 30.0155C53.4884 30.0155 55.6678 27.836 55.6678 25.1476C55.6678 22.4592 53.4884 20.2798 50.8 20.2798C48.1115 20.2798 45.9321 22.4592 45.9321 25.1476C45.9321 27.836 48.1115 30.0155 50.8 30.0155Z" fill="#FFCABD"/>
<path d="M22.0812 43.0545V46.4568C22.0812 48.6436 23.854 50.4162 26.0406 50.4162C28.2274 50.4162 30 48.6434 30 46.4568V43.0545H22.0812Z" fill="white"/>
<path d="M37.919 43.0545V46.4568C37.919 48.6436 36.1463 50.4162 33.9596 50.4162C31.7728 50.4162 30.0002 48.6434 30.0002 46.4568V43.0545H37.919Z" fill="white"/>
<path d="M22.3614 43.6482L22.0812 43.0545H20.4502C20.4502 43.0545 11.1712 46.0307 11.1712 60H13.1576C13.8344 53.3321 17.2965 47.4885 22.3614 43.6482Z" fill="#FF995D"/>
<path d="M50.0963 20.5806C49.6834 18.6525 47.8752 17.3575 45.9182 17.5984C32.7665 19.2168 24.1983 14.5845 19.6852 10.9725C18.1048 9.70768 15.8009 9.90579 14.4741 11.4344C11.3436 15.0408 9.44855 19.7485 9.44855 24.8989C9.44855 36.2387 18.9034 45.5802 30.2425 45.4492C41.4812 45.3193 50.5517 36.1684 50.5517 24.899C50.5517 23.4176 50.3945 21.973 50.0963 20.5806Z" fill="#FFDCCE"/>
<path d="M22.1129 43.8465C17.2 38.6354 14.1877 31.6126 14.1877 23.8857C14.1877 18.9198 15.4326 14.2453 17.6254 10.1548C16.469 10.0609 15.2878 10.497 14.474 11.4345C12.2962 13.9434 10.7173 16.9855 9.95737 20.3387C9.71048 20.3002 9.45769 20.2798 9.20006 20.2798C6.51165 20.2798 4.33221 22.4592 4.33221 25.1476C4.33221 27.836 6.51165 30.0154 9.20006 30.0154C9.50248 30.0154 9.79789 29.9865 10.085 29.9337C11.6969 36.2006 16.2345 41.3597 22.1129 43.8465Z" fill="#FFCABD"/>
<path d="M17.8339 32.6105C20.3131 32.6105 22.3229 31.01 22.3229 29.0356C22.3229 27.0613 20.3131 25.4608 17.8339 25.4608C15.3546 25.4608 13.3448 27.0613 13.3448 29.0356C13.3448 31.01 15.3546 32.6105 17.8339 32.6105Z" fill="#FFA0AB"/>
<path d="M42.1661 32.6105C44.6453 32.6105 46.6551 31.01 46.6551 29.0356C46.6551 27.0613 44.6453 25.4608 42.1661 25.4608C39.6869 25.4608 37.6771 27.0613 37.6771 29.0356C37.6771 31.01 39.6869 32.6105 42.1661 32.6105Z" fill="#FFA0AB"/>
<path d="M20.4501 26.4998C19.9501 26.4998 19.5447 26.0944 19.5447 25.5944V23.7593C19.5447 23.2592 19.9501 22.8538 20.4501 22.8538C20.9502 22.8538 21.3555 23.2592 21.3555 23.7593V25.5944C21.3555 26.0944 20.9502 26.4998 20.4501 26.4998Z" fill="#423E4F"/>
<path d="M39.5499 26.4998C39.0497 26.4998 38.6445 26.0944 38.6445 25.5944V23.7593C38.6445 23.2592 39.0497 22.8538 39.5499 22.8538C40.0501 22.8538 40.4553 23.2592 40.4553 23.7593V25.5944C40.4553 26.0944 40.0501 26.4998 39.5499 26.4998Z" fill="#423E4F"/>
<path d="M30 27.5923C28.7734 27.5923 27.6068 27.061 26.7996 26.1346C26.471 25.7576 26.5104 25.1858 26.8875 24.8571C27.2644 24.5287 27.8364 24.5679 28.1649 24.9449C28.6281 25.4765 29.2969 25.7813 30 25.7813C30.703 25.7813 31.3718 25.4763 31.8352 24.9448C32.1639 24.5678 32.7356 24.5285 33.1127 24.8571C33.4897 25.1856 33.5289 25.7576 33.2004 26.1346C32.393 27.061 31.2266 27.5923 30 27.5923Z" fill="#423E4F"/>
<path d="M15.7328 60V54.0891C15.7328 53.589 16.1382 53.1836 16.6382 53.1836C17.1383 53.1836 17.5437 53.589 17.5437 54.0891V60H15.7328Z" fill="#FF995D"/>
<path d="M42.4567 60V54.0891C42.4567 53.589 42.862 53.1836 43.3622 53.1836C43.8623 53.1836 44.2676 53.589 44.2676 54.0891V60H42.4567Z" fill="#FF995D"/>
<path d="M30 53.8159C30.4839 53.8159 30.8762 53.4236 30.8762 52.9397C30.8762 52.4557 30.4839 52.0634 30 52.0634C29.5161 52.0634 29.1238 52.4557 29.1238 52.9397C29.1238 53.4236 29.5161 53.8159 30 53.8159Z" fill="white"/>
<path d="M30 57.4435C30.4839 57.4435 30.8762 57.0512 30.8762 56.5673C30.8762 56.0834 30.4839 55.6911 30 55.6911C29.5161 55.6911 29.1238 56.0834 29.1238 56.5673C29.1238 57.0512 29.5161 57.4435 30 57.4435Z" fill="white"/>
</g>
<defs>
<clipPath id="clip0_6_1724">
<rect width="60" height="60" fill="white"/>
</clipPath>
</defs>
</svg>
